<?xml version="1.0" standalone="no"?>
<!DOCTYPE svg PUBLIC "-//W3C//DTD SVG 20010904//EN"
 "http://www.w3.org/TR/2001/REC-SVG-20010904/DTD/svg10.dtd">
<svg version="1.0" xmlns="http://www.w3.org/2000/svg"
 width="800.000000pt" height="600.000000pt" viewBox="0 0 800.000000 600.000000"
 preserveAspectRatio="xMidYMid meet">

<g transform="translate(0.000000,409.000000) scale(0.100000,-0.100000)"
fill="#D91B71" stroke="none">
<path d="M2355 3563 c-131 -29 -226 -67 -295 -118 -176 -129 -277 -314 -287
-525 -6 -122 15 -231 67 -336 40 -82 68 -116 228 -277 l137 -138 225 226 225
226 -158 156 c-86 85 -157 157 -157 159 0 2 257 4 570 4 314 0 570 -3 570 -7
0 -4 -350 -359 -778 -788 -852 -854 -811 -807 -853 -975 -47 -186 15 -395 161
-535 22 -22 42 -38 43 -35 1 2 22 -9 47 -26 25 -17 74 -43 110 -60 l65 -29
730 -3 c510 -2 748 0 788 8 124 24 248 94 352 198 201 202 247 539 108 792
-42 78 -56 94 -236 279 l-140 144 -223 -226 -223 -227 167 -167 167 -168 -594
-3 c-327 -1 -597 0 -600 3 -3 3 340 351 762 773 421 422 778 785 793 807 68
102 112 295 94 410 -28 175 -124 316 -272 399 -117 65 -129 66 -891 65 -375
-1 -691 -3 -702 -6z"/>
</g>
</svg>
